<?xml version="1.0" encoding="UTF-8"?>
<svg version="1.1" xmlns="http://www.w3.org/2000/svg" viewBox="0 0 224 268" preserveAspectRatio="xMidYMid meet">
<path d="M0 0 C16.15201859 -0.04692188 32.30401473 -0.08208703 48.45608521 -0.10362434 C55.95740043 -0.11389459 63.45867307 -0.12787257 70.95996094 -0.15087891 C77.50545152 -0.17094409 84.05091124 -0.18374725 90.59643173 -0.18817699 C94.05553769 -0.19076238 97.51455541 -0.19674804 100.97363281 -0.21146011 C137.69127926 -0.36132472 137.69127926 -0.36132472 155 6 C156.10730469 6.39832031 157.21460938 6.79664063 158.35546875 7.20703125 C170.39321592 11.9269163 181.40712214 19.33976304 191 28 C191 28.66 191 29.32 191 30 C191.66 30 192.32 30 193 30 C210.40252849 45.95633498 220.82139269 70.72250554 222 94 C222.12862538 99.00567108 222.11352311 103.9941713 222 109 C221.98324219 109.92554687 221.96648437 110.85109375 221.94921875 111.8046875 C221.05446036 128.62614514 213.47950066 146.31800031 204 160 C203.34 160 202.68 160 202 160 C201.814375 160.67289063 201.62875 161.34578125 201.4375 162.0390625 C199.38591183 166.26488813 196.33318871 169.11183798 193 172.375 C191.98450073 173.37744751 191.98450073 173.37744751 190.94848633 174.40014648 C185.98148289 179.22309324 180.91642521 183.38160707 175 187 C173.91138672 187.74056641 173.91138672 187.74056641 172.80078125 188.49609375 C160.52994608 196.51692828 146.35940268 200.74550441 132 203 C130.71053467 203.26018921 130.71053467 203.26018921 129.39501953 203.52563477 C125.05525259 204.13200376 120.82103896 204.1237395 116.4453125 204.09765625 C115.54376434 204.0962413 114.64221619 204.09482635 113.71334839 204.09336853 C110.850531 204.0877974 107.98779352 204.07525026 105.125 204.0625 C103.17708447 204.05748127 101.2291677 204.05291901 99.28125 204.04882812 C94.52080282 204.03783742 89.76041493 204.02059277 85 204 C84.90638184 204.60046143 84.81276367 205.20092285 84.71630859 205.81958008 C83.24317561 214.59259861 80.94763228 223.11213702 78.625 231.6875 C78.03630958 233.87381996 77.44895348 236.06048868 76.86288452 238.24751282 C76.32716489 240.2446732 75.78798226 242.24090376 75.24853516 244.23706055 C73.43839299 251.14243079 71.73138423 258.07446309 70 265 C46.9 265 23.8 265 0 265 C-1.2590113 261.22296609 -1.12751551 257.70450753 -1.10534668 253.77116394 C-1.10454259 252.93551065 -1.1037385 252.09985735 -1.10291004 251.23888123 C-1.09891193 248.46805788 -1.08762023 245.6973155 -1.07617188 242.92651367 C-1.07161469 240.97465946 -1.06742659 239.02280436 -1.063591 237.0709486 C-1.04981897 231.04726356 -1.02571044 225.02364416 -1 219 C-0.99286388 217.20895523 -0.98575231 215.41791036 -0.97866821 213.62686539 C-0.93273817 202.38723962 -0.8679434 191.14775585 -0.79807091 179.90825677 C-0.76910332 175.20261193 -0.74164085 170.49695826 -0.71398926 165.79130554 C-0.66188052 156.95998904 -0.60850281 148.12868073 -0.5546174 139.2973749 C-0.49313065 129.20951404 -0.43313738 119.12164444 -0.37324238 109.03377402 C-0.25043864 88.35583954 -0.1258477 67.67791617 0 47 C0.99 47 1.98 47 3 47 C3 47.66 3 48.32 3 49 C3.85754883 49.17631958 3.85754883 49.17631958 4.73242188 49.35620117 C7.18445517 50.05236954 9.07359401 51.02992025 11.28125 52.30078125 C12.11317871 52.77733154 12.94510742 53.25388184 13.80224609 53.74487305 C14.69250488 54.26218994 15.58276367 54.77950684 16.5 55.3125 C17.4276416 55.84721924 18.3552832 56.38193848 19.31103516 56.93286133 C28.1564942 62.05040937 36.92101106 67.3008897 45.66503906 72.58935547 C49.35471031 74.8184354 53.05251421 77.03391586 56.75 79.25 C57.97399921 79.98430687 59.19796221 80.7186741 60.421875 81.453125 C61.27265625 81.96359375 62.1234375 82.4740625 63 83 C62.29231642 80.04199472 62.29231642 80.04199472 61 77 C59.68839696 76.29153709 58.35223831 75.62743427 57 75 C55.4694519 73.70323181 55.4694519 73.70323181 54.00732422 72.21850586 C53.45350067 71.66130356 52.89967712 71.10410126 52.32907104 70.53001404 C51.74352448 69.93100784 51.15797791 69.33200165 50.5546875 68.71484375 C49.94360138 68.09855606 49.33251526 67.48226837 48.70291138 66.8473053 C46.75545618 64.88206676 44.81483091 62.91026236 42.875 60.9375 C40.92716399 58.96205725 38.97789254 56.98808649 37.02566528 55.01698303 C35.81202071 53.79106939 34.60105915 52.56249271 33.39303589 51.33103943 C30.4854956 48.28867973 30.4854956 48.28867973 27 46 C27 45.34 27 44.68 27 44 C26.34 44 25.68 44 25 44 C25 43.34 25 42.68 25 42 C24.34 42 23.68 42 23 42 C23 41.34 23 40.68 23 40 C22.4330542 39.74742432 21.8661084 39.49484863 21.28198242 39.23461914 C13.10036764 34.80812658 2.43941746 25.18639136 -0.99658203 16.47265625 C-2.0935605 11.19364534 -2.46285172 4.92570343 0 0 Z M31 21 C35.66522851 26.62219846 40.51259405 32.16010796 46 37 C46.66 37 47.32 37 48 37 C48 37.66 48 38.32 48 39 C48.66 39 49.32 39 50 39 C50 39.66 50 40.32 50 41 C50.66 41 51.32 41 52 41 C52 41.66 52 42.32 52 43 C52.66 43 53.32 43 54 43 C54 43.66 54 44.32 54 45 C54.66 45 55.32 45 56 45 C56 45.66 56 46.32 56 47 C56.66 47 57.32 47 58 47 C58 47.66 58 48.32 58 49 C58.66 49 59.32 49 60 49 C60 49.66 60 50.32 60 51 C61.58438921 52.60270119 61.58438921 52.60270119 63.625 54.25 C66.32929699 56.52103814 68.77439046 58.80556751 71.125 61.4375 C73.77187366 64.27802635 73.77187366 64.27802635 77.25 64.4375 C79.95294822 64.14899729 79.95294822 64.14899729 82 63 C81.36082792 59.56935172 80.02423396 57.2294421 78.09375 54.33984375 C77.51496094 53.46392578 76.93617187 52.58800781 76.33984375 51.68554688 C75.73269531 50.77869141 75.12554687 49.87183594 74.5 48.9375 C73.29907685 47.13611528 72.10102547 45.3328118 70.90625 43.52734375 C70.37322266 42.73062256 69.84019531 41.93390137 69.29101562 41.11303711 C68 39 68 39 67 36 C66.34 36 65.68 36 65 36 C64.34 34.02 63.68 32.04 63 30 C62.34 30 61.68 30 61 30 C60.896875 29.443125 60.79375 28.88625 60.6875 28.3125 C59.85988599 25.52870742 58.62262248 23.40148127 57 21 C54.70112683 19.85056342 53.37909386 19.87101094 50.82421875 19.8671875 C49.99599609 19.86589844 49.16777344 19.86460938 48.31445312 19.86328125 C47.01411133 19.86908203 47.01411133 19.86908203 45.6875 19.875 C44.83220703 19.87113281 43.97691406 19.86726563 43.09570312 19.86328125 C38.93709131 19.86972372 35.05408054 19.94677495 31 21 Z M79 20 C82.40541316 26.40562896 85.89670435 32.64082193 90 38.625 C90.42716309 39.25672119 90.85432617 39.88844238 91.29443359 40.53930664 C92.13816138 41.7870349 92.98362788 43.03358967 93.83105469 44.27880859 C95.44463404 46.65469298 97.03538182 49.045539 98.625 51.4375 C99.09164062 52.13746094 99.55828125 52.83742187 100.0390625 53.55859375 C100.51472656 54.27208984 100.51472656 54.27208984 101 55 C102.155 54.690625 103.31 54.38125 104.5 54.0625 C110.5498632 52.58458966 115.5996188 51.51232832 121.75390625 52.984375 C122.55256104 53.17225586 123.35121582 53.36013672 124.17407227 53.55371094 C124.77662842 53.70098633 125.37918457 53.84826172 126 54 C126.21615967 53.48203857 126.43231934 52.96407715 126.6550293 52.43041992 C127.66409112 50.01537182 128.67535848 47.60125908 129.6875 45.1875 C130.23180664 43.88921265 130.23180664 43.88921265 130.78710938 42.56469727 C133.14399088 36.96710368 135.58454487 31.42206163 138.1875 25.93359375 C139.12913027 24.04225568 139.12913027 24.04225568 139 22 C127.28475953 18.09491984 112.92643438 19.88697933 100.75 19.9375 C98.63671981 19.94252467 96.52343846 19.94708587 94.41015625 19.95117188 C89.27340858 19.96210167 84.13671726 19.9793131 79 20 Z M157 29 C156.67725098 29.76666992 156.35450195 30.53333984 156.02197266 31.32324219 C154.81909462 34.17883398 153.61502518 37.03391961 152.41015625 39.88867188 C151.63450024 41.72747828 150.86021033 43.56686075 150.0859375 45.40625 C149.35117188 47.14648438 149.35117188 47.14648438 148.6015625 48.921875 C148.15119629 49.99018555 147.70083008 51.05849609 147.23681641 52.15917969 C146 55 146 55 144.83740234 57.19238281 C143.78982609 59.12165398 143.78982609 59.12165398 144 62 C145.725227 62.67679658 147.45538939 63.34102 149.1875 64 C150.15042969 64.37125 151.11335937 64.7425 152.10546875 65.125 C155.99074854 66.29949753 158.67473215 66.57922638 162.44775391 64.93017578 C163.69951416 64.19516846 163.69951416 64.19516846 164.9765625 63.4453125 C165.894375 62.91292969 166.8121875 62.38054688 167.7578125 61.83203125 C168.70398438 61.26871094 169.65015625 60.70539062 170.625 60.125 C171.57890625 59.56941406 172.5328125 59.01382813 173.515625 58.44140625 C177.06707004 56.36556161 180.57665713 54.28222858 184 52 C179.56538826 42.13081505 168.7874061 35.72800423 160 30 C159.01 29.67 158.02 29.34 157 29 Z M187.6875 71.5625 C187.06391602 71.92311523 186.44033203 72.28373047 185.79785156 72.65527344 C184.50416924 73.40341917 183.21071527 74.15195988 181.91748047 74.90087891 C180.11220454 75.93568311 178.29586164 76.94642995 176.47265625 77.94921875 C175.40917969 78.54347656 174.34570312 79.13773438 173.25 79.75 C172.28578125 80.28109375 171.3215625 80.8121875 170.328125 81.359375 C167.75829249 83.1703308 166.93231946 84.02595301 166 87 C165.77859919 89.30649199 165.64268709 91.62179414 165.5625 93.9375 C165.22678523 101.19341513 163.88333504 107.97598944 162 115 C169.76583098 118.74120324 177.63371974 122.1484737 185.625 125.375 C186.50188477 125.73271484 187.37876953 126.09042969 188.28222656 126.45898438 C189.52311035 126.95495117 189.52311035 126.95495117 190.7890625 127.4609375 C191.89822021 127.90638916 191.89822021 127.90638916 193.02978516 128.36083984 C195.13038305 129.15428982 195.13038305 129.15428982 198 129 C203.50682904 108.21951304 204.24204419 87.93842021 195 68 C192.55668287 68 189.80911536 70.33466678 187.6875 71.5625 Z M108.46484375 72.64453125 C107.57216797 72.99193359 106.67949219 73.33933594 105.75976562 73.69726562 C104.36274414 74.24930664 104.36274414 74.24930664 102.9375 74.8125 C96.65193795 77.28998811 90.41034599 79.57012968 83.90063477 81.39331055 C82.01058621 81.83654752 82.01058621 81.83654752 81 83 C80.87060768 101.65837255 85.53160355 118.89791458 98.5625 132.69921875 C103.49803645 137.35792222 108.97823164 142.42518429 116 143 C126.22637598 139.31596393 136.00247141 128.31937092 141 119 C145.7996025 107.52435467 148.48941877 95.48017875 148 83 C142.38763697 80.49966933 136.68414329 78.43251598 130.875 76.4375 C129.12203598 75.8330739 127.36942046 75.22763593 125.6171875 74.62109375 C124.80733398 74.34120605 123.99748047 74.06131836 123.16308594 73.77294922 C121.44703571 73.15974211 119.75364716 72.48317902 118.0703125 71.78515625 C114.3889813 70.38902876 111.96812139 71.2612038 108.46484375 72.64453125 Z M19 80 C19 99.47 19 118.94 19 139 C27.81314813 133.4479349 27.81314813 133.4479349 36.0625 127.375 C41.50987803 123.096193 47.07128334 118.99188949 52.6875 114.9375 C53.47842041 114.36499512 54.26934082 113.79249023 55.08422852 113.20263672 C60.7421875 109.12890625 60.7421875 109.12890625 63 108 C62.505 106.515 62.505 106.515 62 105 C61.01 105 60.02 105 59 105 C59 104.34 59 103.68 59 103 C57.58671871 102.18162558 56.16921654 101.37053781 54.75 100.5625 C53.96109375 100.11003906 53.1721875 99.65757813 52.359375 99.19140625 C50.21166532 98.10688398 48.34794939 97.46851284 46 97 C46 96.34 46 95.68 46 95 C45.37996094 94.67128906 44.75992188 94.34257813 44.12109375 94.00390625 C37.58052089 90.49084746 31.19844423 86.76695894 24.86499023 82.89672852 C22.11501474 80.89133947 22.11501474 80.89133947 19 80 Z M66.359375 127.73828125 C65.24755859 128.59776367 65.24755859 128.59776367 64.11328125 129.47460938 C62.55317576 130.6878815 60.99327569 131.90141782 59.43359375 133.11523438 C56.33159367 135.51272148 53.33640563 137.80203823 49.953125 139.79296875 C49.30859375 140.19128906 48.6640625 140.58960938 48 141 C48 141.66 48 142.32 48 143 C47.30519531 143.23074219 46.61039063 143.46148437 45.89453125 143.69921875 C42.40933087 145.2654424 39.63904318 147.43350134 36.6875 149.8125 C32.96031326 152.76334385 29.28216748 155.56513523 25.1875 158 C24.135625 158.66 23.08375 159.32 22 160 C22 160.66 22 161.32 22 162 C20.515 162.495 20.515 162.495 19 163 C19 176.86 19 190.72 19 205 C23.19759019 200.85938675 23.19759019 200.85938675 26.69140625 196.390625 C27.15514648 195.72691895 27.61888672 195.06321289 28.09667969 194.37939453 C28.58040039 193.67669434 29.06412109 192.97399414 29.5625 192.25 C30.62098368 190.73169409 31.67958074 189.21346722 32.73828125 187.6953125 C33.27662598 186.91961914 33.8149707 186.14392578 34.36962891 185.34472656 C36.97877572 181.59236867 39.61380526 177.85838312 42.25 174.125 C42.75329834 173.41142334 43.25659668 172.69784668 43.77514648 171.96264648 C47.14412863 167.19237191 50.55745727 162.45687238 54.00390625 157.7421875 C56.8061458 153.89253551 59.58653651 150.02726698 62.33349609 146.13793945 C64.26062883 143.41078661 66.20816122 140.73287775 68.26171875 138.09765625 C70.0401362 135.77418356 71.68385371 133.61314864 73 131 C72.68313505 127.44082978 72.68313505 127.44082978 71 125 C69.14671916 125 67.76383656 126.64504703 66.359375 127.73828125 Z M154 133 C153.52433594 133.72703125 153.04867187 134.4540625 152.55859375 135.203125 C148.10457312 141.60116569 143.4326751 146.70615124 137.3125 151.5625 C136.68335693 152.06233398 136.05421387 152.56216797 135.40600586 153.07714844 C131.64739217 155.96770488 128.37539254 157.81230373 124 160 C124 167.92 124 175.84 124 184 C134.20119283 182.95127924 142.57790115 181.25704341 152 177 C153.52947266 176.31744141 153.52947266 176.31744141 155.08984375 175.62109375 C162.24484719 172.24157475 169.02202508 168.22484422 175 163 C175 162.34 175 161.68 175 161 C175.66 161 176.32 161 177 161 C177 160.34 177 159.68 177 159 C177.66 159 178.32 159 179 159 C180.60634015 157.26608049 182.1375287 155.461909 183.625 153.625 C184.44226563 152.62726563 185.25953125 151.62953125 186.1015625 150.6015625 C188.19648969 148.26750115 188.19648969 148.26750115 188 146 C184.02259519 144.39144094 180.0427672 142.78896173 176.0625 141.1875 C174.94552734 140.73568359 173.82855469 140.28386719 172.67773438 139.81835938 C166.50493598 137.33837879 160.33770333 135.02295727 154 133 Z M79 154 C80 156 80 156 80 156 Z M78 156 C73.66180474 161.99649548 69.3289706 167.99684187 65 174 C64.33701904 174.91869873 64.33701904 174.91869873 63.66064453 175.85595703 C57.29517658 184.68598347 51.07497158 193.61435243 44.88354492 202.56713867 C41.61068446 207.29015072 38.30321586 211.98066043 34.9140625 216.62109375 C31.36185017 221.48619334 27.88515714 226.39225595 24.5 231.375 C23.96375 232.14199219 23.4275 232.90898437 22.875 233.69921875 C22.11703125 234.81876953 22.11703125 234.81876953 21.34375 235.9609375 C20.89193359 236.61884277 20.44011719 237.27674805 19.97460938 237.95458984 C18.64154078 240.37467453 18.64154078 240.37467453 19 245 C30.55 245 42.1 245 54 245 C56.4131092 237.82394158 56.4131092 237.82394158 58.5078125 230.59375 C58.76763916 229.61929932 59.02746582 228.64484863 59.29516602 227.64086914 C59.56901123 226.60438232 59.84285645 225.56789551 60.125 224.5 C60.74048064 222.19650639 61.35638744 219.89312662 61.97265625 217.58984375 C62.2989502 216.36765137 62.62524414 215.14545898 62.96142578 213.88623047 C64.81646024 206.94173684 66.68276705 200.00034966 68.5625 193.0625 C68.75263672 192.3593869 68.94277344 191.6562738 69.13867188 190.93185425 C71.65991535 181.62791189 74.30166473 172.37977804 77.41235352 163.25219727 C77.99245059 161.51765974 78.50437752 159.76053725 79 158 C78.505 157.01 78.505 157.01 78 156 Z M99 157 C97.82139224 160.55866104 96.65924408 164.12248876 95.5 167.6875 C95.16613281 168.69490234 94.83226563 169.70230469 94.48828125 170.74023438 C94.17246094 171.71669922 93.85664062 172.69316406 93.53125 173.69921875 C93.23798828 174.59471436 92.94472656 175.49020996 92.64257812 176.4128418 C91.79912629 179.36446701 91.79912629 179.36446701 92 184 C96.29 184 100.58 184 105 184 C105 176.08 105 168.16 105 160 C103.02 159.01 101.04 158.02 99 157 Z " fill="#458AD1" transform="translate(2,1)"/>
<path d="M0 0 C3.56943715 0.30595176 5.03014419 1.02424641 7.875 3.3125 C10 6 10 6 9.828125 7.95654297 C8.85808377 10.35018835 7.73318856 11.59597255 5.875 13.3828125 C5.25109375 13.99253906 4.6271875 14.60226563 3.984375 15.23046875 C3.32953125 15.85566406 2.6746875 16.48085937 2 17.125 C0.70625147 18.3754538 -0.58551506 19.62796248 -1.875 20.8828125 C-2.73738281 21.70869873 -2.73738281 21.70869873 -3.6171875 22.55126953 C-5.10804278 23.97103318 -5.10804278 23.97103318 -6 26 C-6.66 26 -7.32 26 -8 26 C-8.38285156 26.87398437 -8.38285156 26.87398437 -8.7734375 27.765625 C-10.11741087 30.21388223 -11.61810296 31.81743248 -13.625 33.75 C-14.25664063 34.36359375 -14.88828125 34.9771875 -15.5390625 35.609375 C-16.26222656 36.29773438 -16.26222656 36.29773438 -17 37 C-21.8643819 34.44666544 -25.49523464 30.94129272 -29.375 27.125 C-30.02855469 26.51269531 -30.68210937 25.90039062 -31.35546875 25.26953125 C-35.98377027 20.71918008 -35.98377027 20.71918008 -36.0625 17.23046875 C-34.57375491 14.10519874 -32.6453008 12.20441734 -30 10 C-29.01 10 -28.02 10 -27 10 C-27 10.66 -27 11.32 -27 12 C-26.34 12 -25.68 12 -25 12 C-25 12.66 -25 13.32 -25 14 C-24.34 14 -23.68 14 -23 14 C-23 14.66 -23 15.32 -23 16 C-22.34 16 -21.68 16 -21 16 C-21 16.66 -21 17.32 -21 18 C-17.22255825 18.38351444 -17.22255825 18.38351444 -15.41601562 16.88598633 C-14.91779297 16.37318115 -14.41957031 15.86037598 -13.90625 15.33203125 C-13.35066406 14.76806641 -12.79507813 14.20410156 -12.22265625 13.62304688 C-11.65417969 13.02556641 -11.08570312 12.42808594 -10.5 11.8125 C-9.93152344 11.23435547 -9.36304687 10.65621094 -8.77734375 10.06054688 C-5.64934067 6.849082 -2.73491011 3.55940507 0 0 Z " fill="#498BCD" transform="translate(132,89)"/>
<path d="M0 0 C0.33 0 0.66 0 1 0 C1 14.85 1 29.7 1 45 C34.66 45.495 34.66 45.495 69 46 C69 42.37 69 38.74 69 35 C69.66 35 70.32 35 71 35 C71 34.34 71 33.68 71 33 C71.66 33 72.32 33 73 33 C72.69024532 34.77131561 72.37709575 36.54203778 72.0625 38.3125 C71.88847656 39.29863281 71.71445313 40.28476562 71.53515625 41.30078125 C71 44 71 44 70 47 C46.9 47 23.8 47 0 47 C-0.9228472 44.23145839 -1.12638284 42.58307129 -1.12939453 39.72802734 C-1.13254669 38.87058929 -1.13569885 38.01315125 -1.13894653 37.12973022 C-1.1369223 36.20777863 -1.13489807 35.28582703 -1.1328125 34.3359375 C-1.13376923 33.38812408 -1.13472595 32.44031067 -1.13571167 31.46377563 C-1.13639203 29.46152683 -1.13454779 27.45927581 -1.13037109 25.45703125 C-1.12500899 22.38015844 -1.13032705 19.30343083 -1.13671875 16.2265625 C-1.13605818 14.28385384 -1.13477744 12.34114528 -1.1328125 10.3984375 C-1.13483673 9.47243744 -1.13686096 8.54643738 -1.13894653 7.59237671 C-1.13579437 6.74124298 -1.13264221 5.89010925 -1.12939453 5.01318359 C-1.12859894 4.26056244 -1.12780334 3.50794128 -1.12698364 2.73251343 C-1 1 -1 1 0 0 Z " fill="#6C8CC7" transform="translate(2,219)"/>
<path d="M0 0 C2.02910711 0.25327449 4.04962145 0.57730068 6.0625 0.9375 C7.16722656 1.13214844 8.27195313 1.32679688 9.41015625 1.52734375 C10.26480469 1.68332031 11.11945313 1.83929688 12 2 C12 2.33 12 2.66 12 3 C0.5580285 5.36601672 -10.68487468 5.23190678 -22.3125 5.125 C-24.22851092 5.1149456 -26.14452698 5.10582412 -28.06054688 5.09765625 C-32.70716034 5.07584803 -37.35352199 5.04145509 -42 5 C-42.66 8.63 -43.32 12.26 -44 16 C-44.33 16 -44.66 16 -45 16 C-45.28999065 7.44527596 -45.28999065 7.44527596 -43 3 C-40.85163788 0.85163788 -35.95413294 1.76436246 -32.96875 1.71875 C-32.06249878 1.70034058 -31.15624756 1.68193115 -30.22253418 1.66296387 C-26.32767974 1.58399712 -22.4326446 1.51644849 -18.53759766 1.44775391 C-15.70205807 1.39614699 -12.86667315 1.33884827 -10.03125 1.28125 C-9.14272339 1.26767456 -8.25419678 1.25409912 -7.33874512 1.2401123 C-3.34903621 1.55362547 -3.34903621 1.55362547 0 0 Z " fill="#709CC9" transform="translate(129,200)"/>
<path d="M0 0 C0 0.66 0 1.32 0 2 C0.66 2 1.32 2 2 2 C2 2.66 2 3.32 2 4 C2.66 4 3.32 4 4 4 C4 4.66 4 5.32 4 6 C4.66 6 5.32 6 6 6 C5.67 6.66 5.34 7.32 5 8 C3.68 7.67 2.36 7.34 1 7 C1 6.34 1 5.68 1 5 C-0.32 5 -1.64 5 -3 5 C-2.81870185 8.43793339 -2.81870185 8.43793339 -2 12 C-0.11683841 13.10836423 -0.11683841 13.10836423 2 14 C2.45375 15.010625 2.9075 16.02125 3.375 17.0625 C4.71203105 20.26755892 4.71203105 20.26755892 7.875 20.9375 C10.78931575 20.99578632 13.19077566 20.74361821 16 20 C13.03 23.465 13.03 23.465 10 27 C5.1356181 24.44666544 1.50476536 20.94129272 -2.375 17.125 C-3.02855469 16.51269531 -3.68210937 15.90039062 -4.35546875 15.26953125 C-8.98377027 10.71918008 -8.98377027 10.71918008 -9.0625 7.23046875 C-7.09340324 3.09681342 -4.72810435 0 0 0 Z " fill="#6594C8" transform="translate(105,99)"/>
<path d="M0 0 C0.73878387 0.07987152 1.47756775 0.15974304 2.23873901 0.24203491 C6.12329471 0.72426302 9.50078132 1.49620574 13.0546875 3.1484375 C13.0546875 5.1284375 13.0546875 7.1084375 13.0546875 9.1484375 C12.3946875 9.1484375 11.7346875 9.1484375 11.0546875 9.1484375 C10.7246875 10.4684375 10.3946875 11.7884375 10.0546875 13.1484375 C9.3946875 13.1484375 8.7346875 13.1484375 8.0546875 13.1484375 C9.0446875 10.1784375 10.0346875 7.2084375 11.0546875 4.1484375 C-1.5826115 3.13241711 -14.21089122 2.83799731 -26.8828125 2.5859375 C-28.93425137 2.54262808 -30.98568375 2.49901041 -33.03710938 2.45507812 C-38.00644296 2.34931709 -42.97584515 2.24770555 -47.9453125 2.1484375 C-47.9453125 1.4884375 -47.9453125 0.8284375 -47.9453125 0.1484375 C-42.86358649 -0.04757968 -37.78162037 -0.22559464 -32.69873047 -0.38867188 C-30.9785165 -0.44619343 -29.25844495 -0.50819167 -27.53857422 -0.57519531 C-18.28975547 -0.93237614 -9.2131152 -1.00395463 0 0 Z " fill="#608BBA" transform="translate(129.9453125,18.8515625)"/>
<path d="M0 0 C0.763125 0.20625 1.52625 0.4125 2.3125 0.625 C1.9825 1.285 1.6525 1.945 1.3125 2.625 C0.6525 2.625 -0.0075 2.625 -0.6875 2.625 C-1.0175 21.765 -1.3475 40.905 -1.6875 60.625 C-0.6975 60.625 0.2925 60.625 1.3125 60.625 C1.3125 61.285 1.3125 61.945 1.3125 62.625 C-0.3375 62.295 -1.9875 61.965 -3.6875 61.625 C-3.6875 42.815 -3.6875 24.005 -3.6875 4.625 C-4.3475 4.625 -5.0075 4.625 -5.6875 4.625 C-5.6875 3.635 -5.6875 2.645 -5.6875 1.625 C-2.6875 -0.375 -2.6875 -0.375 0 0 Z " fill="#6594BF" transform="translate(22.6875,79.375)"/>
<path d="M0 0 C1.65 0.33 3.3 0.66 5 1 C5.66 2.98 6.32 4.96 7 7 C7.66 7 8.32 7 9 7 C12.08329354 25.07764367 13.95515712 43.00965477 9 61 C8.01 61 7.02 61 6 61 C6.13277344 60.29875 6.26554688 59.5975 6.40234375 58.875 C10.11493806 38.92996778 10.10547669 21.28629386 3 2 C1.68 2.33 0.36 2.66 -1 3 C-0.67 2.01 -0.34 1.02 0 0 Z " fill="#6994C3" transform="translate(194,68)"/>
<path d="M0 0 C1.64880409 0.02997826 1.64880409 0.02997826 3.33091736 0.06056213 C4.57212845 0.08065842 5.81333954 0.1007547 7.09216309 0.12145996 C8.45682486 0.14866042 9.82148445 0.1759712 11.18614197 0.2033844 C12.57476041 0.22767578 13.96338674 0.25151982 15.35202026 0.27493286 C19.01326971 0.3378717 22.67438005 0.40691031 26.335495 0.47718811 C30.06884914 0.54778333 33.80230219 0.61265294 37.53575134 0.67799377 C44.86593882 0.80713233 52.19598885 0.94271024 59.52598572 1.08229065 C59.52598572 1.41229065 59.52598572 1.74229065 59.52598572 2.08229065 C39.72598572 2.41229065 19.92598572 2.74229065 -0.47401428 3.08229065 C-0.14401428 5.06229065 0.18598572 7.04229065 0.52598572 9.08229065 C0.46411072 10.25791565 0.40223572 11.43354065 0.33848572 12.64479065 C0.56260597 16.7536619 1.71141543 18.17976504 4.52598572 21.08229065 C3.86598572 21.74229065 3.20598572 22.40229065 2.52598572 23.08229065 C-0.03023541 21.04058048 -2.14135873 19.34949067 -2.99647522 16.09205627 C-3.22435667 13.82944672 -3.31834038 11.60599367 -3.34901428 9.33229065 C-3.38252991 8.55240784 -3.41604553 7.77252502 -3.45057678 6.9690094 C-3.51878789 5.00794019 -3.50348689 3.04432444 -3.47401428 1.08229065 C-2.47401428 0.08229065 -2.47401428 0.08229065 0 0 Z " fill="#4787C7" transform="translate(4.4740142822265625,1.9177093505859375)"/>
<path d="M0 0 C0.99 0 1.98 0 3 0 C3 0.66 3 1.32 3 2 C3.88316895 2.19033813 3.88316895 2.19033813 4.78417969 2.38452148 C8.23913366 3.34418863 11.18051444 5.25636978 14.25 7.0625 C14.8996875 7.43955078 15.549375 7.81660156 16.21875 8.20507812 C17.81505091 9.13234115 19.40787529 10.06558456 21 11 C20.01 11.66 19.02 12.32 18 13 C18 12.34 18 11.68 18 11 C13.545 11.495 13.545 11.495 9 12 C9.33 11.34 9.66 10.68 10 10 C10.66 10 11.32 10 12 10 C12 9.34 12 8.68 12 8 C10.35 7.67 8.7 7.34 7 7 C7 6.34 7 5.68 7 5 C4.03 4.505 4.03 4.505 1 4 C1 19.51 1 35.02 1 51 C0.67 51 0.34 51 0 51 C0 34.17 0 17.34 0 0 Z " fill="#5F8AB9" transform="translate(2,48)"/>
<path d="M0 0 C-0.125 1.875 -0.125 1.875 -1 4 C-2.98 4.66 -4.96 5.32 -7 6 C-7 13.92 -7 21.84 -7 30 C-1.39 29.01 4.22 28.02 10 27 C10.33 27.66 10.66 28.32 11 29 C4.66078938 30.71495553 -1.42273154 31.56115584 -8 31 C-9.70113248 29.29886752 -9.13012381 27.11657034 -9.1328125 24.79296875 C-9.13410156 23.73142578 -9.13539062 22.66988281 -9.13671875 21.57617188 C-9.13285156 20.45791016 -9.12898438 19.33964844 -9.125 18.1875 C-9.12886719 17.08083984 -9.13273437 15.97417969 -9.13671875 14.83398438 C-9.13542969 13.76857422 -9.13414063 12.70316406 -9.1328125 11.60546875 C-9.13168457 10.62731201 -9.13055664 9.64915527 -9.12939453 8.64135742 C-9.01092193 6.22295164 -8.88115891 4.25450529 -8 2 C-5.25822503 0.83328724 -2.99432393 0 0 0 Z " fill="#5C89BA" transform="translate(133,155)"/>
<path d="M0 0 C0.66 0 1.32 0 2 0 C2 14.19 2 28.38 2 43 C2.99 43.33 3.98 43.66 5 44 C4.34 44.99 3.68 45.98 3 47 C2.01 46.67 1.02 46.34 0 46 C0 30.82 0 15.64 0 0 Z " fill="#6395C3" transform="translate(19,163)"/>
<path d="M0 0 C1.32 0 2.64 0 4 0 C4 0.66 4 1.32 4 2 C4.66 2 5.32 2 6 2 C6.36554789 5.28993102 6.26218503 6.63099885 4.3125 9.375 C2 11 2 11 -0.5 10.6875 C-1.325 10.460625 -2.15 10.23375 -3 10 C-5.23167185 10.36856864 -5.23167185 10.36856864 -7 11 C-7.66 9.68 -8.32 8.36 -9 7 C-6.62624557 4.25144224 -4.33642103 3.3170083 -1 2 C-0.67 1.34 -0.34 0.68 0 0 Z " fill="#4788CE" transform="translate(132,92)"/>
<path d="M0 0 C0.99 0 1.98 0 3 0 C3.25 5.625 3.25 5.625 1 9 C-1.83727325 9.26667539 -4.45383045 9.34791234 -7.2890625 9.29296875 C-8.10748627 9.28872391 -8.92591003 9.28447906 -9.76913452 9.28010559 C-12.38808836 9.26328679 -15.00627802 9.22562974 -17.625 9.1875 C-19.3984264 9.17245726 -21.17186484 9.15876814 -22.9453125 9.14648438 C-27.2971703 9.11337292 -31.64845551 9.06156952 -36 9 C-36 8.01 -36 7.02 -36 6 C-18.675 5.505 -18.675 5.505 -1 5 C-0.67 3.35 -0.34 1.7 0 0 Z " fill="#8AB6E2" transform="translate(57,240)"/>
<path d="M0 0 C4.42005192 -0.67595509 8.90947052 -0.46276791 13.375 -0.4375 C14.62023437 -0.45748047 15.86546875 -0.47746094 17.1484375 -0.49804688 C18.9428125 -0.49708008 18.9428125 -0.49708008 20.7734375 -0.49609375 C21.87091309 -0.49794678 22.96838867 -0.4997998 24.09912109 -0.50170898 C27.6627765 0.11462765 28.76117589 1.22387082 31 4 C34 8.5 34 8.5 34 11 C34.66 11 35.32 11 36 11 C35.67 11.99 35.34 12.98 35 14 C34.505 13.01 34.505 13.01 34 12 C33.34 12 32.68 12 32 12 C28 5.25 28 5.25 28 3 C18.1 3 8.2 3 -2 3 C-1.34 2.01 -0.68 1.02 0 0 Z " fill="#6B93BD" transform="translate(31,19)"/>
<path d="M0 0 C1.33459401 4.00378204 0.00270481 6.57898355 -1.375 10.375 C-2.86945816 14.57919 -4.12018403 18.60092013 -5 23 C-0.71 23 3.58 23 8 23 C8 23.33 8 23.66 8 24 C5.54137599 24.05383848 3.0839245 24.09359038 0.625 24.125 C-0.42300781 24.15013672 -0.42300781 24.15013672 -1.4921875 24.17578125 C-3.32897486 24.19344267 -5.16601963 24.10303261 -7 24 C-9.17532857 21.82467143 -9.3662254 20.89725531 -10 18 C-10.33 17.34 -10.66 16.68 -11 16 C-9.68 15.67 -8.36 15.34 -7 15 C-7 14.01 -7 13.02 -7 12 C-6.34 11.67 -5.68 11.34 -5 11 C-4.16504893 8.95162696 -4.16504893 8.95162696 -3.5 6.5625 C-2.21640091 2.21640091 -2.21640091 2.21640091 0 0 Z " fill="#588CC1" transform="translate(99,162)"/>
<path d="M0 0 C1.41377341 2.63904371 2.37240135 5.07120629 3 8 C4.65 8.33 6.3 8.66 8 9 C8.33 11.64 8.66 14.28 9 17 C9.66 17 10.32 17 11 17 C14.125 23.625 14.125 23.625 13 27 C5.578125 15.8671875 5.578125 15.8671875 4.26757812 13.88964844 C3.45261681 12.67474078 2.62416393 11.46871814 1.77929688 10.27441406 C-1 6.31134259 -1 6.31134259 -1 3 C-1.66 2.67 -2.32 2.34 -3 2 C-2.01 1.34 -1.02 0.68 0 0 Z " fill="#5C8ECA" transform="translate(70,34)"/>
<path d="M0 0 C6.28260381 9.42390571 4.05390632 29.22668004 2 40 C1.34 40.99 0.68 41.98 0 43 C-0.33 42.67 -0.66 42.34 -1 42 C-0.9098237 40.55170828 -0.75362452 39.10743997 -0.5703125 37.66796875 C0.07144169 31.86845057 0.1479684 26.14264631 0.125 20.3125 C0.12886719 19.31927734 0.13273438 18.32605469 0.13671875 17.30273438 C0.13115929 13.11923936 0.09498014 9.05412089 -0.5703125 4.91796875 C-1 2 -1 2 0 0 Z " fill="#668FC0" transform="translate(221,81)"/>
<path d="M0 0 C0.495 0.268125 0.99 0.53625 1.5 0.8125 C7.48914241 3.65734264 13.57006257 5.44794614 20 7 C20.66 7.33 21.32 7.66 22 8 C22 8.66 22 9.32 22 10 C22.9075 10.12375 23.815 10.2475 24.75 10.375 C27.58970323 10.92109677 29.52590591 11.57263803 32 13 C26.82014668 14.85438749 23.04405075 12.81653794 18.25 10.8125 C17.45029785 10.48950928 16.6505957 10.16651855 15.82666016 9.83374023 C10.50046306 7.66865034 5.21768683 5.41559576 0 3 C0 2.01 0 1.02 0 0 Z " fill="#6091C2" transform="translate(156,131)"/>
<path d="M0 0 C3.56943715 0.30595176 5.03014419 1.02424641 7.875 3.3125 C10 6 10 6 9.85546875 7.96484375 C8.80292224 10.46884709 7.54872053 11.56102358 5.4375 13.25 C4.79683594 13.77078125 4.15617188 14.2915625 3.49609375 14.828125 C3.00238281 15.21484375 2.50867188 15.6015625 2 16 C2.57344937 13.13275314 2.8614515 12.1385485 5 10 C5.64767793 7.42938689 5.64767793 7.42938689 6 5 C5.34 5 4.68 5 4 5 C4 4.34 4 3.68 4 3 C2.68 3 1.36 3 0 3 C-0.66 4.32 -1.32 5.64 -2 7 C-2.99 6.67 -3.98 6.34 -5 6 C-3.35 4.02 -1.7 2.04 0 0 Z " fill="#769BC0" transform="translate(132,89)"/>
<path d="M0 0 C0.66 0.66 1.32 1.32 2 2 C1.625 3.875 1.625 3.875 1 6 C1 7.32 1 8.64 1 10 C1.66 10.66 2.32 11.32 3 12 C2.01 12 1.02 12 0 12 C0 14.31 0 16.62 0 19 C-0.99 19.33 -1.98 19.66 -3 20 C-3.33 21.65 -3.66 23.3 -4 25 C-4.66 25 -5.32 25 -6 25 C-6.33 25.66 -6.66 26.32 -7 27 C-5.38949895 17.77622123 -2.71861481 8.94445024 0 0 Z " fill="#4382C7" transform="translate(66,208)"/>
<path d="M0 0 C6.37148571 1.40936089 11.86198391 3.79077997 17.5 7 C18.11117676 7.34417969 18.72235352 7.68835938 19.35205078 8.04296875 C22.3841754 9.81787096 24.01757429 11.02636144 26 14 C20.47627027 13.30953378 14.9496621 10.9496621 11 7 C9.01643517 6.28591666 7.01684563 5.61382258 5 5 C5 4.34 5 3.68 5 3 C3.35 2.67 1.7 2.34 0 2 C0 1.34 0 0.68 0 0 Z " fill="#759FC6" transform="translate(155,7)"/>
<path d="M0 0 C-3.01956421 3.01956421 -6.74557078 4.04154879 -10.6875 5.5625 C-11.47833984 5.87896484 -12.26917969 6.19542969 -13.08398438 6.52148438 C-17.73190582 8.32922261 -21.99836139 9.73675586 -27 10 C-27.66 9.34 -28.32 8.68 -29 8 C-27.94039062 7.74605469 -26.88078125 7.49210938 -25.7890625 7.23046875 C-24.40088835 6.88342521 -23.01287569 6.53573523 -21.625 6.1875 C-20.92632812 6.02185547 -20.22765625 5.85621094 -19.5078125 5.68554688 C-14.96323061 4.56828793 -14.96323061 4.56828793 -12 1 C-8.0456534 -0.24279464 -4.11456153 -0.08067768 0 0 Z " fill="#6793C2" transform="translate(169,192)"/>
<path d="M0 0 C3.3088067 1.40877141 5.11467858 3.03750445 7.375 5.8125 C9.56072329 8.42217824 11.65902988 10.63746486 14.375 12.6875 C17 15 17 15 17.875 17.8125 C17.91625 18.534375 17.9575 19.25625 18 20 C16.36114929 18.60014836 14.72321773 17.19920688 13.08984375 15.79296875 C11.65114965 14.55864988 10.20539344 13.33253049 8.75390625 12.11328125 C8.03074219 11.49839844 7.30757812 10.88351563 6.5625 10.25 C5.88316406 9.67765625 5.20382813 9.1053125 4.50390625 8.515625 C3 7 3 7 3 5 C2.34 5 1.68 5 1 5 C1 4.34 1 3.68 1 3 C0.34 2.67 -0.32 2.34 -1 2 C-0.67 1.34 -0.34 0.68 0 0 Z " fill="#5F8CBE" transform="translate(26,40)"/>
<path d="M0 0 C0.33 0 0.66 0 1 0 C1.08040527 0.61931396 1.16081055 1.23862793 1.24365234 1.87670898 C1.61661609 4.73086593 1.99577134 7.58416898 2.375 10.4375 C2.50132813 11.41138672 2.62765625 12.38527344 2.7578125 13.38867188 C3.55524809 19.34950292 4.60829145 25.1487732 6 31 C5.01 30.67 4.02 30.34 3 30 C-0.79612713 21.17481556 -0.95627671 10.49888527 -1 1 C-0.67 0.67 -0.34 0.34 0 0 Z " fill="#608AB5" transform="translate(82,82)"/>
<path d="M0 0 C1.32 0 2.64 0 4 0 C2.89803687 3.30588938 2.2674616 3.83339104 -0.421875 5.84765625 C-1.11796875 6.37037109 -1.8140625 6.89308594 -2.53125 7.43164062 C-3.2634375 7.96982422 -3.995625 8.50800781 -4.75 9.0625 C-5.46671875 9.60455078 -6.1834375 10.14660156 -6.921875 10.70507812 C-10.48204517 13.35230025 -13.7199085 15.64351431 -18 17 C-18 17.66 -18 18.32 -18 19 C-18.66 18.67 -19.32 18.34 -20 18 C-18.37660195 16.29115995 -16.70680947 14.62553283 -15 13 C-14.34 13 -13.68 13 -13 13 C-13 12.34 -13 11.68 -13 11 C-12.34 11 -11.68 11 -11 11 C-10.67 10.01 -10.34 9.02 -10 8 C-9.01 8.33 -8.02 8.66 -7 9 C-6.62875 7.7934375 -6.62875 7.7934375 -6.25 6.5625 C-5.8375 5.716875 -5.425 4.87125 -5 4 C-2.9375 3.375 -2.9375 3.375 -1 3 C-0.67 2.01 -0.34 1.02 0 0 Z " fill="#7B9FC6" transform="translate(68,125)"/>
<path d="M0 0 C3.3 0.66 6.6 1.32 10 2 C10.33 1.34 10.66 0.68 11 0 C14.3 1.98 17.6 3.96 21 6 C17 8 17 8 13.72265625 7.1015625 C12.51480469 6.61429687 11.30695313 6.12703125 10.0625 5.625 C5.84589759 3.93835904 2.56945111 2.63583122 -2 3 C-1.34 2.01 -0.68 1.02 0 0 Z " fill="#6193C5" transform="translate(115,70)"/>
<path d="M0 0 C3.44727223 3.13809983 5.78417924 6.6375943 8.125 10.625 C10.70800763 15.07138228 10.70800763 15.07138228 14 19 C13.01 19 12.02 19 11 19 C10.67 19.66 10.34 20.32 10 21 C9.34 20.67 8.68 20.34 8 20 C7.65657551 18.66923011 7.32380126 17.33568021 7 16 C6.34 15.34 5.68 14.68 5 14 C4.690625 13.01 4.38125 12.02 4.0625 11 C3.24072925 7.72778248 3.24072925 7.72778248 0 6 C-0.1875 2.875 -0.1875 2.875 0 0 Z " fill="#6092C1" transform="translate(91,38)"/>
<path d="M0 0 C0.99 0.33 1.98 0.66 3 1 C-0.37392656 7.57682459 -4.33155048 13.28059621 -9 19 C-9.804375 20.010625 -10.60875 21.02125 -11.4375 22.0625 C-11.953125 22.701875 -12.46875 23.34125 -13 24 C-13 21.36 -13 18.72 -13 16 C-12.401875 15.938125 -11.80375 15.87625 -11.1875 15.8125 C-8.06470173 14.6526035 -7.5793835 12.90606563 -6 10 C-4.7217073 8.19535148 -3.40895568 6.42048003 -2.0859375 4.6484375 C-0.81409656 2.87198707 -0.81409656 2.87198707 0 0 Z " fill="#5E8DBE" transform="translate(45,201)"/>
<path d="M0 0 C2.97 0.495 2.97 0.495 6 1 C5.60167969 1.44730469 5.20335937 1.89460937 4.79296875 2.35546875 C1.82015875 5.74779939 -0.8282194 9.01840224 -3 13 C-4.32 12.67 -5.64 12.34 -7 12 C-5.44298069 7.32894208 -2.91552627 3.91294315 0 0 Z " fill="#528AC7" transform="translate(41,178)"/>
<path d="M0 0 C0.93423645 3.01031744 1.04449911 3.86650268 0 7 C-1.2065625 7.86625 -1.2065625 7.86625 -2.4375 8.75 C-5.32386212 10.8514522 -5.32386212 10.8514522 -5.875 14.5625 C-7 18 -7 18 -8.671875 19.1171875 C-10.625 19.9375 -10.625 19.9375 -14 21 C-12.51582039 17.81961511 -10.71836286 15.04691888 -8.6875 12.1875 C-7.76324219 10.88232422 -7.76324219 10.88232422 -6.8203125 9.55078125 C-6.21960937 8.70902344 -5.61890625 7.86726562 -5 7 C-4.48179688 6.27167969 -3.96359375 5.54335937 -3.4296875 4.79296875 C-2.28935432 3.1932442 -1.14515489 1.59627651 0 0 Z " fill="#6B9BC7" transform="translate(62,149)"/>
<path d="M0 0 C0.33 0 0.66 0 1 0 C1.45473501 6.67892044 -0.23421677 12.5305703 -2 18.9375 C-2.28617187 20.00291016 -2.57234375 21.06832031 -2.8671875 22.16601562 C-3.57037994 24.77954752 -4.28149557 27.39064415 -5 30 C-5.33 30 -5.66 30 -6 30 C-5.67 24.72 -5.34 19.44 -5 14 C-4.34 14 -3.68 14 -3 14 C-2.86722656 13.15695313 -2.73445313 12.31390625 -2.59765625 11.4453125 C-2.42105469 10.34960938 -2.24445313 9.25390625 -2.0625 8.125 C-1.88847656 7.03445312 -1.71445313 5.94390625 -1.53515625 4.8203125 C-1 2 -1 2 0 0 Z " fill="#6792BF" transform="translate(82,217)"/>
<path d="M0 0 C2 3 2 3 1.80078125 5.31640625 C-0.40588611 12.71143297 -4.49353025 19.76027265 -9 26 C-9.66 25.01 -10.32 24.02 -11 23 C-10.01 22.67 -9.02 22.34 -8 22 C-8 21.01 -8 20.02 -8 19 C-7.34 19 -6.68 19 -6 19 C-5.67 16.36 -5.34 13.72 -5 11 C-4.01 10.67 -3.02 10.34 -2 10 C-1.855625 9.0925 -1.71125 8.185 -1.5625 7.25 C-1.13590527 4.78523044 -0.64925779 2.41152893 0 0 Z " fill="#6B93C1" transform="translate(215,135)"/>
<path d="M0 0 C0.33 0 0.66 0 1 0 C1 2.64 1 5.28 1 8 C0.360625 8.185625 -0.27875 8.37125 -0.9375 8.5625 C-3.42126213 9.94246056 -3.42126213 9.94246056 -3.75 13.625 C-3.8325 14.73875 -3.915 15.8525 -4 17 C-5.98 17.66 -7.96 18.32 -10 19 C-9.37980357 15.32130064 -7.76519551 13.03453614 -5.5625 10.0625 C-3.14344451 6.79500751 -1.36606805 3.83734692 0 0 Z " fill="#6591C0" transform="translate(144,115)"/>
<path d="M0 0 C1.65 0.33 3.3 0.66 5 1 C5.66 2.98 6.32 4.96 7 7 C7.66 7 8.32 7 9 7 C10.15316726 13.34241995 10.09507063 19.56688704 10 26 C9.67 26 9.34 26 9 26 C8.81824219 25.02160156 8.63648438 24.04320313 8.44921875 23.03515625 C7.07608552 15.81584611 5.54812667 8.91634383 3 2 C1.68 2.33 0.36 2.66 -1 3 C-0.67 2.01 -0.34 1.02 0 0 Z " fill="#6C94C3" transform="translate(194,68)"/>
<path d="M0 0 C3.56842186 1.78421093 4.25230765 6.16760776 5.625 9.75 C5.94984375 10.56210938 6.2746875 11.37421875 6.609375 12.2109375 C9.48085529 19.61887404 9.48085529 19.61887404 9 24 C8.01 23.34 7.02 22.68 6 22 C5.59156077 19.28796348 5.86663133 16.7562858 6 14 C5.01 14 4.02 14 3 14 C3 12.68 3 11.36 3 10 C2.34 10 1.68 10 1 10 C0.37542727 6.56484998 0 3.50935186 0 0 Z " fill="#779EC6" transform="translate(212,56)"/>
<path d="M0 0 C0.33 0 0.66 0 1 0 C1 1.65 1 3.3 1 5 C1.66 5 2.32 5 3 5 C2.95359375 5.73605469 2.9071875 6.47210938 2.859375 7.23046875 C2.53777378 13.53124322 2.53777378 13.53124322 5 19.1875 C5.66 19.785625 6.32 20.38375 7 21 C6.34 21.66 5.68 22.32 5 23 C2.44377887 20.95828983 0.33265555 19.26720002 -0.52246094 16.00976562 C-0.75034238 13.74715607 -0.8443261 11.52370302 -0.875 9.25 C-0.90851562 8.47011719 -0.94203125 7.69023437 -0.9765625 6.88671875 C-1.0447736 4.92564954 -1.02947261 2.96203379 -1 1 C-0.67 0.67 -0.34 0.34 0 0 Z " fill="#628DC3" transform="translate(2,2)"/>
<path d="M0 0 C0.99 0 1.98 0 3 0 C2.49487476 6.22987798 -0.32604123 11.45474233 -3 17 C-3.66 16.67 -4.32 16.34 -5 16 C-4.67 13.69 -4.34 11.38 -4 9 C-3.34 9 -2.68 9 -2 9 C-1.34 6.03 -0.68 3.06 0 0 Z " fill="#6496C4" transform="translate(151,40)"/>
<path d="M0 0 C0.66 0.33 1.32 0.66 2 1 C1.50628906 1.73605469 1.01257812 2.47210938 0.50390625 3.23046875 C-0.45708984 4.69419922 -0.45708984 4.69419922 -1.4375 6.1875 C-2.07558594 7.15042969 -2.71367187 8.11335937 -3.37109375 9.10546875 C-4.91546187 11.84977757 -5.59816641 13.90418343 -6 17 C-6.66 17 -7.32 17 -8 17 C-8 13.7 -8 10.4 -8 7 C-7.34 6.67 -6.68 6.34 -6 6 C-5.34 6.33 -4.68 6.66 -4 7 C-4.33 6.01 -4.66 5.02 -5 4 C-3.35 2.68 -1.7 1.36 0 0 Z " fill="#608FC6" transform="translate(27,229)"/>
<path d="M0 0 C1.15628906 0.63228516 1.15628906 0.63228516 2.3359375 1.27734375 C3.33882812 1.82519531 4.34171875 2.37304688 5.375 2.9375 C6.37273438 3.48277344 7.37046875 4.02804688 8.3984375 4.58984375 C9.92070346 5.4149759 11.45128783 6.22564391 13 7 C13 5.35 13 3.7 13 2 C13.99 2.66 14.98 3.32 16 4 C15.67 5.65 15.34 7.3 15 9 C12.36 8.67 9.72 8.34 7 8 C7 7.34 7 6.68 7 6 C4.525 5.01 4.525 5.01 2 4 C2 3.34 2 2.68 2 2 C1.34 2 0.68 2 0 2 C0 1.34 0 0.68 0 0 Z " fill="#4C86BF" transform="translate(52,77)"/>
<path d="M0 0 C0.66 0.33 1.32 0.66 2 1 C1 4 1 4 -0.875 5.1875 C-3 6 -3 6 -6 6 C-6 6.66 -6 7.32 -6 8 C-12.703125 11.22265625 -12.703125 11.22265625 -17 10 C-14.21605957 8.29949343 -11.42172475 6.61688375 -8.625 4.9375 C-7.8309375 4.45216797 -7.036875 3.96683594 -6.21875 3.46679688 C-5.45820313 3.01240234 -4.69765625 2.55800781 -3.9140625 2.08984375 C-2.8614624 1.45357056 -2.8614624 1.45357056 -1.78759766 0.80444336 C-0.90273682 0.4062439 -0.90273682 0.4062439 0 0 Z " fill="#719CC4" transform="translate(179,56)"/>
<path d="M0 0 C0 1.98 0 3.96 0 6 C-0.66 6 -1.32 6 -2 6 C-2.33 7.32 -2.66 8.64 -3 10 C-3.66 10 -4.32 10 -5 10 C-4.01 7.03 -3.02 4.06 -2 1 C-6.95 0.67 -11.9 0.34 -17 0 C-17 -0.33 -17 -0.66 -17 -1 C-11.54358766 -2.25917208 -5.136435 -2.5682175 0 0 Z " fill="#729EC7" transform="translate(143,22)"/>
<path d="M0 0 C0.33 0 0.66 0 1 0 C2.53994167 8.21920674 1.2173731 15.0074348 -1 23 C-1.99 23 -2.98 23 -4 23 C-3.87882813 22.42894531 -3.75765625 21.85789062 -3.6328125 21.26953125 C-2.17461372 14.21409256 -1.05000462 7.12662714 0 0 Z " fill="#719BC1" transform="translate(149,92)"/>
<path d="M0 0 C0.33 0.66 0.66 1.32 1 2 C-0.74233825 2.72697561 -2.49427345 3.43098244 -4.25 4.125 C-5.22453125 4.51945312 -6.1990625 4.91390625 -7.203125 5.3203125 C-10 6 -10 6 -12.359375 5.1171875 C-12.90078125 4.74851562 -13.4421875 4.37984375 -14 4 C-11.37350692 2.24900461 -9.38191413 1.30690675 -6.4375 0.3125 C-5.65246094 0.04050781 -4.86742188 -0.23148437 -4.05859375 -0.51171875 C-2 -1 -2 -1 0 0 Z " fill="#6495C3" transform="translate(111,72)"/>
<path d="M0 0 C1.21236328 0.04060547 1.21236328 0.04060547 2.44921875 0.08203125 C3.06410156 0.11683594 3.67898437 0.15164062 4.3125 0.1875 C0.51432235 3.41019618 -3.26141854 5.93270378 -7.6875 8.1875 C-8.3475 7.8575 -9.0075 7.5275 -9.6875 7.1875 C-7.45089065 2.19814067 -5.70862614 -0.24820114 0 0 Z " fill="#6D99C7" transform="translate(188.6875,70.8125)"/>
<path d="M0 0 C0.66 0 1.32 0 2 0 C0.30854826 3.61076745 -1.76934939 6.90692978 -3.9375 10.25 C-4.62714844 11.32765625 -5.31679688 12.4053125 -6.02734375 13.515625 C-6.67832031 14.33546875 -7.32929687 15.1553125 -8 16 C-8.99 16 -9.98 16 -11 16 C-11 15.34 -11 14.68 -11 14 C-10.01 14 -9.02 14 -8 14 C-8 12.68 -8 11.36 -8 10 C-7.34 10 -6.68 10 -6 10 C-5.566875 8.8553125 -5.566875 8.8553125 -5.125 7.6875 C-4 5 -4 5 -2 2 C-1.34 2 -0.68 2 0 2 C0 1.34 0 0.68 0 0 Z " fill="#6F99C2" transform="translate(67,172)"/>
<path d="M0 0 C1.0859375 3.7578125 1.0859375 3.7578125 0.3125 5.9375 C-1.30759163 8.48335828 -2.95833739 10.7727317 -5 13 C-5.99 13 -6.98 13 -8 13 C-6.53181332 9.89257577 -4.79975 7.09528261 -2.875 4.25 C-2.33617188 3.45078125 -1.79734375 2.6515625 -1.2421875 1.828125 C-0.62730469 0.92320312 -0.62730469 0.92320312 0 0 Z " fill="#6593C6" transform="translate(74,132)"/>
<path d="M0 0 C1.32 0 2.64 0 4 0 C4.4125 0.886875 4.825 1.77375 5.25 2.6875 C6.90127288 5.81312366 8.71331259 8.31905614 11 11 C8 11 8 11 5.95703125 9.35546875 C5.24933594 8.64003906 4.54164062 7.92460938 3.8125 7.1875 C2.73935547 6.12595703 2.73935547 6.12595703 1.64453125 5.04296875 C0 3 0 3 0 0 Z " fill="#6995C7" transform="translate(10,25)"/>
<path d="M0 0 C-0.3178303 2.9664161 -1.0104603 4.01076795 -3.125 6.1875 C-6.47706098 8.30075583 -9.08348532 8.69282238 -13 9 C-11.948125 8.1646875 -11.948125 8.1646875 -10.875 7.3125 C-9.3687192 6.10092631 -7.86574426 4.88412646 -6.40234375 3.62109375 C-2.20352564 0 -2.20352564 0 0 0 Z " fill="#6494C3" transform="translate(177,164)"/>
<path d="M0 0 C1.32 0 2.64 0 4 0 C4.35233161 5.37305699 4.35233161 5.37305699 4 8 C2 10 2 10 0 11 C-1.05404945 7.01803543 -0.84098656 4.01804691 0 0 Z " fill="#4581BE" transform="translate(82,151)"/>
<path d="M0 0 C-1.77945087 4.04420651 -4.39529673 7.46078487 -7 11 C-9.7839183 9.60804085 -9.97898997 7.84424221 -11 5 C-10.34 4.67 -9.68 4.34 -9 4 C-9 4.66 -9 5.32 -9 6 C-7.68 5.67 -6.36 5.34 -5 5 C-5 4.01 -5 3.02 -5 2 C-2 0 -2 0 0 0 Z " fill="#6995C5" transform="translate(156,134)"/>
<path d="M0 0 C0.99 0.33 1.98 0.66 3 1 C-1.29 4.63 -5.58 8.26 -10 12 C-10.33 11.01 -10.66 10.02 -11 9 C-10.34 9 -9.68 9 -9 9 C-8.9175 8.38125 -8.835 7.7625 -8.75 7.125 C-8 5 -8 5 -6.125 3.75 C-4 3 -4 3 -1 3 C-0.67 2.01 -0.34 1.02 0 0 Z " fill="#759BC5" transform="translate(145,145)"/>
<path d="M0 0 C0.66 0.33 1.32 0.66 2 1 C-0.37671224 6.03303769 -3.06749372 7.75008486 -8 10 C-10.22265625 9.6015625 -10.22265625 9.6015625 -12 9 C-11.21753906 8.43410156 -10.43507813 7.86820313 -9.62890625 7.28515625 C-8.61699219 6.55167969 -7.60507812 5.81820312 -6.5625 5.0625 C-5.55316406 4.33160156 -4.54382813 3.60070312 -3.50390625 2.84765625 C-1.17707392 1.22678115 -1.17707392 1.22678115 0 0 Z " fill="#709DC9" transform="translate(34,130)"/>
<path d="M0 0 C1.31225809 3.93677426 0.3393954 5.7794262 -0.9375 9.6875 C-1.31777344 10.86699219 -1.69804688 12.04648438 -2.08984375 13.26171875 C-2.39019531 14.16535156 -2.69054687 15.06898438 -3 16 C-3.33 15.01 -3.66 14.02 -4 13 C-4.66 12.67 -5.32 12.34 -6 12 C-5.38144369 10.3725363 -4.75492695 8.74809644 -4.125 7.125 C-3.77695313 6.22007812 -3.42890625 5.31515625 -3.0703125 4.3828125 C-2 2 -2 2 0 0 Z " fill="#6C96C5" transform="translate(99,162)"/>
<path d="M0 0 C0.66 0.33 1.32 0.66 2 1 C2 1.66 2 2.32 2 3 C-0.5 4.5 -0.5 4.5 -3 6 C-4.7041054 7.62836738 -6.38025441 9.28769752 -8 11 C-8.33 10.34 -8.66 9.68 -9 9 C-7.83709195 5.51127585 -6.86032391 4.90023136 -3.9375 2.8125 C-3.20402344 2.28269531 -2.47054687 1.75289062 -1.71484375 1.20703125 C-1.14894531 0.80871094 -0.58304688 0.41039062 0 0 Z " fill="#4F89C0" transform="translate(130,135)"/>
<path d="M0 0 C5.27749285 0.53851968 9.25645564 1.77343836 14 4 C14 4.33 14 4.66 14 5 C10.7 5.33 7.4 5.66 4 6 C4 5.01 4 4.02 4 3 C2.68 2.67 1.36 2.34 0 2 C0 1.34 0 0.68 0 0 Z " fill="#5A8EC2" transform="translate(183,125)"/>
<path d="M0 0 C2.31 0 4.62 0 7 0 C7 0.66 7 1.32 7 2 C9.97 2.495 9.97 2.495 13 3 C12.67 4.32 12.34 5.64 12 7 C7.69235185 5.43358249 3.93828536 3.31663844 0 1 C0 0.67 0 0.34 0 0 Z " fill="#6E9BC9" transform="translate(48,97)"/>
<path d="M0 0 C0.680625 0.70125 1.36125 1.4025 2.0625 2.125 C5.20780513 5.27934337 8.5888386 8.13934304 12 11 C11.01 11.33 10.02 11.66 9 12 C7.17578125 10.85546875 7.17578125 10.85546875 5.3125 9.1875 C4.68988281 8.64480469 4.06726563 8.10210937 3.42578125 7.54296875 C2 6 2 6 2 4 C1.34 4 0.68 4 0 4 C0 2.68 0 1.36 0 0 Z " fill="#7BA3CB" transform="translate(95,127)"/>
<path d="M0 0 C0.66 0.33 1.32 0.66 2 1 C1.67 2.32 1.34 3.64 1 5 C-0.65 5.33 -2.3 5.66 -4 6 C-4.33 6.99 -4.66 7.98 -5 9 C-6.32 8.34 -7.64 7.68 -9 7 C-6.03 4.69 -3.06 2.38 0 0 Z " fill="#679BCB" transform="translate(53,116)"/>
<path d="M0 0 C2.12890625 0.20703125 2.12890625 0.20703125 4.5625 0.8125 C5.36816406 1.00457031 6.17382812 1.19664063 7.00390625 1.39453125 C9 2 9 2 10 3 C10.07205511 4.68608966 10.08386068 6.37500659 10.0625 8.0625 C10.05347656 8.98160156 10.04445312 9.90070313 10.03515625 10.84765625 C10.02355469 11.55792969 10.01195312 12.26820312 10 13 C9.67 13 9.34 13 9 13 C8.67 10.36 8.34 7.72 8 5 C4.7 4.01 1.4 3.02 -2 2 C-1.34 1.34 -0.68 0.68 0 0 Z " fill="#6E96BE" transform="translate(141,79)"/>
<path d="M0 0 C2.6486859 3.19668988 4.93992341 6.39486597 7 10 C6.34 10 5.68 10 5 10 C5.33 10.99 5.66 11.98 6 13 C5.34 13 4.68 13 4 13 C4 11.35 4 9.7 4 8 C3.01 7.67 2.02 7.34 1 7 C-0.25 4.5625 -0.25 4.5625 -1 2 C-0.67 1.34 -0.34 0.68 0 0 Z " fill="#6C98C7" transform="translate(84,27)"/>
<path d="M0 0 C0.66 0 1.32 0 2 0 C1.71715982 1.77226453 1.42339502 3.542788 1.125 5.3125 C0.96257812 6.29863281 0.80015625 7.28476562 0.6328125 8.30078125 C0 11 0 11 -2 14 C-2 10.04 -2 6.08 -2 2 C-1.34 2 -0.68 2 0 2 C0 1.34 0 0.68 0 0 Z " fill="#729AC6" transform="translate(73,252)"/>
<path d="M0 0 C0.33 0 0.66 0 1 0 C1.19392201 5.52677733 0.7479503 9.75614911 -1 15 C-1.66 15 -2.32 15 -3 15 C-3.33 15.66 -3.66 16.32 -4 17 C-2.91103333 11.24237834 -1.70663707 5.60752181 0 0 Z " fill="#749AC4" transform="translate(63,218)"/>
<path d="M0 0 C3.59391114 1.33488128 6.75490696 2.96022723 10 5 C6 6 6 6 2 7 C1.87625 6.195625 1.7525 5.39125 1.625 4.5625 C1.315625 3.2940625 1.315625 3.2940625 1 2 C0.34 1.67 -0.32 1.34 -1 1 C-0.67 0.67 -0.34 0.34 0 0 Z " fill="#689ACA" transform="translate(28,63)"/>
<path d="M0 0 C0.33 0.66 0.66 1.32 1 2 C1.66 2 2.32 2 3 2 C2.34 3.32 1.68 4.64 1 6 C-0.45823212 6.0270043 -1.91660675 6.04639787 -3.375 6.0625 C-4.18710938 6.07410156 -4.99921875 6.08570313 -5.8359375 6.09765625 C-8 6 -8 6 -10 5 C-10 4.34 -10 3.68 -10 3 C-5.545 3.99 -5.545 3.99 -1 5 C-0.67 3.35 -0.34 1.7 0 0 Z " fill="#7DA6C8" transform="translate(129,50)"/>
<path d="M0 0 C2.3125 0.5625 2.3125 0.5625 5 2 C6.875 5.4375 6.875 5.4375 8 9 C7.67 9.99 7.34 10.98 7 12 C5.82767315 10.3790787 4.6622923 8.75313167 3.5 7.125 C2.8503125 6.22007813 2.200625 5.31515625 1.53125 4.3828125 C0 2 0 2 0 0 Z " fill="#799ECA" transform="translate(76,49)"/>
<path d="M0 0 C2.13288249 4.26576498 2.24882352 4.73318631 1 9 C0.36562656 10.6792238 -0.29289322 12.35008418 -1 14 C-1.66 13.67 -2.32 13.34 -3 13 C-2.01 8.71 -1.02 4.42 0 0 Z " fill="#6D9CC6" transform="translate(78,165)"/>
<path d="M0 0 C-0.98093954 2.45234885 -1.68703828 3.7809268 -3.875 5.3125 C-6.37345514 6.12082372 -7.52928976 5.71847013 -10 5 C-8.90241493 4.15801693 -7.79664683 3.32669329 -6.6875 2.5 C-6.07261719 2.0359375 -5.45773438 1.571875 -4.82421875 1.09375 C-3 0 -3 0 0 0 Z " fill="#6997C4" transform="translate(65,110)"/>
<path d="M0 0 C6.75 0.875 6.75 0.875 9 2 C9 2.66 9 3.32 9 4 C9.66 4 10.32 4 11 4 C11 4.99 11 5.98 11 7 C6.89188572 5.55007731 3.53144334 3.54592427 0 1 C0 0.67 0 0.34 0 0 Z " fill="#729CC7" transform="translate(160,30)"/>
<path d="M0 0 C0.99 0.33 1.98 0.66 3 1 C2.23832543 2.46313772 1.46529293 3.92036661 0.6875 5.375 C0.04361328 6.59316406 0.04361328 6.59316406 -0.61328125 7.8359375 C-2 10 -2 10 -5 12 C-4.46231128 8.1286412 -3.422527 6.02815875 -1 3 C-0.67 2.01 -0.34 1.02 0 0 Z " fill="#6F99C3" transform="translate(45,201)"/>
<path d="M0 0 C0.33 0.99 0.66 1.98 1 3 C-2.53832266 5.1229936 -5.921046 5.62231907 -10 6 C-10.66 5.67 -11.32 5.34 -12 5 C-12 4.34 -12 3.68 -12 3 C-6.06 2.505 -6.06 2.505 0 2 C0 1.34 0 0.68 0 0 Z " fill="#4787C5" transform="translate(203,127)"/>
<path d="M0 0 C0.33 0 0.66 0 1 0 C1.44041451 5.37305699 1.44041451 5.37305699 1 8 C-1.5 10 -1.5 10 -4 11 C-4 7.80389448 -3.45328458 6.58282374 -2 3.8125 C-1.62875 3.09707031 -1.2575 2.38164063 -0.875 1.64453125 C-0.441875 0.83048828 -0.441875 0.83048828 0 0 Z " fill="#709AC9" transform="translate(144,115)"/>
<path d="M0 0 C2.93200474 2.85276137 5.64315404 5.65079784 8 9 C6.35 9 4.7 9 3 9 C2.67 7.35 2.34 5.7 2 4 C0.35 3.67 -1.3 3.34 -3 3 C-2.67 2.34 -2.34 1.68 -2 1 C-1.34 1.33 -0.68 1.66 0 2 C0 1.34 0 0.68 0 0 Z " fill="#6A98C7" transform="translate(194,31)"/>
<path d="M0 0 C0.33 0.66 0.66 1.32 1 2 C3.01669827 3.13350534 3.01669827 3.13350534 5 4 C4.34 4 3.68 4 3 4 C3 4.66 3 5.32 3 6 C2.01 6.33 1.02 6.66 0 7 C0 6.34 0 5.68 0 5 C-1.32 4.67 -2.64 4.34 -4 4 C-3.67 3.01 -3.34 2.02 -3 1 C-2.01 0.67 -1.02 0.34 0 0 Z " fill="#5692CD" transform="translate(163,173)"/>
<path d="M0 0 C0.66 0.66 1.32 1.32 2 2 C0.88121617 3.17262904 -0.24523051 4.33795138 -1.375 5.5 C-2.00148437 6.1496875 -2.62796875 6.799375 -3.2734375 7.46875 C-5 9 -5 9 -7 9 C-6.67 7.35 -6.34 5.7 -6 4 C-5.01 4 -4.02 4 -3 4 C-3 3.34 -3 2.68 -3 2 C-2.01 2 -1.02 2 0 2 C0 1.34 0 0.68 0 0 Z " fill="#5D8DC1" transform="translate(199,165)"/>
<path d="M0 0 C1.32 0 2.64 0 4 0 C2.88333826 3.34998521 2.25305075 3.79340222 -0.5625 5.6875 C-1.20316406 6.12449219 -1.84382813 6.56148437 -2.50390625 7.01171875 C-2.99761719 7.33785156 -3.49132812 7.66398438 -4 8 C-4.66 7.34 -5.32 6.68 -6 6 C-5.67 5.34 -5.34 4.68 -5 4 C-4.34 3.855625 -3.68 3.71125 -3 3.5625 C-2.01 3.2840625 -2.01 3.2840625 -1 3 C-0.67 2.01 -0.34 1.02 0 0 Z " fill="#6695C4" transform="translate(68,125)"/>
<path d="M0 0 C0.99 0.33 1.98 0.66 3 1 C-0.465 3.97 -0.465 3.97 -4 7 C-4.99 6.34 -5.98 5.68 -7 5 C-6.67 4.01 -6.34 3.02 -6 2 C-4.35 2.33 -2.7 2.66 -1 3 C-0.67 2.01 -0.34 1.02 0 0 Z " fill="#6992BB" transform="translate(118,119)"/>
<path d="M0 0 C0.78375 0.04125 1.5675 0.0825 2.375 0.125 C1.1010411 2.16333424 -0.23561923 4.16352126 -1.625 6.125 C-2.285 6.125 -2.945 6.125 -3.625 6.125 C-3.955 6.785 -4.285 7.445 -4.625 8.125 C-4.75 5.25 -4.75 5.25 -4.625 2.125 C-2.625 0.125 -2.625 0.125 0 0 Z " fill="#5D8EBD" transform="translate(127.625,108.875)"/>
<path d="M0 0 C0.33 0.66 0.66 1.32 1 2 C1.99 2 2.98 2 4 2 C4.33 2.99 4.66 3.98 5 5 C6.49985609 6.66710346 6.49985609 6.66710346 8 8 C7.34 8.66 6.68 9.32 6 10 C4.98808455 9.09650406 3.99081074 8.17659153 3 7.25 C2.1646875 6.48429687 2.1646875 6.48429687 1.3125 5.703125 C0 4 0 4 0 0 Z " fill="#6E99C3" transform="translate(96,105)"/>
<path d="M0 0 C0.33 0 0.66 0 1 0 C1.99 4.62 2.98 9.24 4 14 C3.01 13.67 2.02 13.34 1 13 C0.234375 11.07421875 0.234375 11.07421875 -0.25 8.6875 C-0.42015625 7.90761719 -0.5903125 7.12773438 -0.765625 6.32421875 C-1.00771617 3.92348133 -0.7310448 2.28190412 0 0 Z " fill="#7DA5CA" transform="translate(84,99)"/>
<path d="M0 0 C0 0.99 0 1.98 0 3 C-1.32 3 -2.64 3 -4 3 C-4.66 4.32 -5.32 5.64 -6 7 C-6.99 6.67 -7.98 6.34 -9 6 C-4.5 0 -4.5 0 0 0 Z " fill="#6C95BD" transform="translate(136,89)"/>
<path d="M0 0 C3.70293685 -0.33663062 5.39534381 -0.47736015 8.375 1.875 C10 4 10 4 10 6 C6.00499382 4.6302836 3.19990508 2.74277578 0 0 Z " fill="#6F9CC7" transform="translate(24,82)"/>
<path d="M0 0 C2 1 2 1 2.62109375 2.671875 C3.09148053 5.56208656 3.0943182 8.32272535 3.0625 11.25 C3.05347656 12.32765625 3.04445312 13.4053125 3.03515625 14.515625 C3.02355469 15.33546875 3.01195312 16.1553125 3 17 C2.67 17 2.34 17 2 17 C-0.29612756 5.47835991 -0.29612756 5.47835991 0 0 Z " fill="#82A4C9" transform="translate(201,77)"/>
<path d="M0 0 C0.33 0 0.66 0 1 0 C1.02696365 1.79158489 1.04637917 3.58328473 1.0625 5.375 C1.07410156 6.37273437 1.08570312 7.37046875 1.09765625 8.3984375 C1 11 1 11 0 13 C-0.66 13 -1.32 13 -2 13 C-2.33 13.66 -2.66 14.32 -3 15 C-2.68917128 13.24970238 -2.37626821 11.49977306 -2.0625 9.75 C-1.88847656 8.77546875 -1.71445313 7.8009375 -1.53515625 6.796875 C-1.09620271 4.50278205 -0.59651408 2.25708029 0 0 Z " fill="#4E83BC" transform="translate(75,239)"/>
<path d="M0 0 C-4.455 2.97 -4.455 2.97 -9 6 C-9.99 5.01 -10.98 4.02 -12 3 C-10.35 3 -8.7 3 -7 3 C-6.67 2.01 -6.34 1.02 -6 0 C-3 -1 -3 -1 0 0 Z " fill="#739BC8" transform="translate(48,145)"/>
<path d="M0 0 C1.41805831 0.28482368 2.83440379 0.57818144 4.25 0.875 C5.03890625 1.03742188 5.8278125 1.19984375 6.640625 1.3671875 C8.96831144 1.99150075 10.89031952 2.84838542 13 4 C8.02398374 5.71050559 4.57383705 4.00885647 0 2 C0 1.34 0 0.68 0 0 Z " fill="#6996C5" transform="translate(175,140)"/>
<path d="M0 0 C0.66 0 1.32 0 2 0 C2.33 2.31 2.66 4.62 3 7 C1.35 7.33 -0.3 7.66 -2 8 C-1.125 1.125 -1.125 1.125 0 0 Z " fill="#548EC7" transform="translate(92,124)"/>
<path d="M0 0 C0.99 0 1.98 0 3 0 C2.71788123 1.6266848 2.42397625 3.25132896 2.125 4.875 C1.96257812 5.77992188 1.80015625 6.68484375 1.6328125 7.6171875 C1 10 1 10 -1 12 C-1.08159574 7.83861737 -0.98248524 4.0527516 0 0 Z " fill="#6C97C4" transform="translate(218,126)"/>
<path d="M0 0 C5.53846154 0.61538462 5.53846154 0.61538462 7.875 2.5625 C8.431875 3.2740625 8.431875 3.2740625 9 4 C8.01 4.33 7.02 4.66 6 5 C6 4.34 6 3.68 6 3 C1.545 3.495 1.545 3.495 -3 4 C-2.67 3.34 -2.34 2.68 -2 2 C-1.34 2 -0.68 2 0 2 C0 1.34 0 0.68 0 0 Z " fill="#5D94C5" transform="translate(14,56)"/>
<path d="M0 0 C3 0 3 0 4.60546875 1.53125 C5.12753906 2.1809375 5.64960938 2.830625 6.1875 3.5 C6.71730469 4.1496875 7.24710938 4.799375 7.79296875 5.46875 C8.19128906 5.9740625 8.58960938 6.479375 9 7 C8.34 7.66 7.68 8.32 7 9 C5.82737096 7.88121617 4.66204862 6.75476949 3.5 5.625 C2.8503125 4.99851562 2.200625 4.37203125 1.53125 3.7265625 C0 2 0 2 0 0 Z " fill="#6A96C2" transform="translate(178,42)"/>
<path d="M0 0 C3.3 0.99 6.6 1.98 10 3 C10 3.99 10 4.98 10 6 C8.35 5.67 6.7 5.34 5 5 C5 4.34 5 3.68 5 3 C3.35 2.67 1.7 2.34 0 2 C0 1.34 0 0.68 0 0 Z " fill="#6691C0" transform="translate(155,7)"/>
<path d="M0 0 C1.43088528 2.86177057 0.59991697 4.93375773 0 8 C-1.98 8.33 -3.96 8.66 -6 9 C-4.02 6.03 -2.04 3.06 0 0 Z " fill="#719BC9" transform="translate(28,197)"/>
<path d="M0 0 C0.66 0 1.32 0 2 0 C2.25 7.625 2.25 7.625 0 11 C-0.33 10.67 -0.66 10.34 -1 10 C-0.91036938 8.30858344 -0.75422324 6.62040398 -0.5625 4.9375 C-0.46066406 4.01839844 -0.35882813 3.09929687 -0.25390625 2.15234375 C-0.17011719 1.44207031 -0.08632812 0.73179688 0 0 Z " fill="#5F8DBA" transform="translate(221,113)"/>
<path d="M0 0 C-1.62171239 0.38897161 -3.24754925 0.76078298 -4.875 1.125 C-5.77992188 1.33382812 -6.68484375 1.54265625 -7.6171875 1.7578125 C-8.40351563 1.83773437 -9.18984375 1.91765625 -10 2 C-10.66 1.34 -11.32 0.68 -12 0 C-3.96428571 -2.41071429 -3.96428571 -2.41071429 0 0 Z " fill="#6A9BC8" transform="translate(152,200)"/>
<path d="M0 0 C0.66 1.32 1.32 2.64 2 4 C0.37660195 5.70884005 -1.29319053 7.37446717 -3 9 C-3.66 9 -4.32 9 -5 9 C-3.50163895 5.88801935 -1.80066242 2.9465385 0 0 Z " fill="#759ECB" transform="translate(41,178)"/>
<path d="M0 0 C3.63 1.98 7.26 3.96 11 6 C7 7 7 7 4.25 5.6875 C3.5075 5.130625 2.765 4.57375 2 4 C2 3.34 2 2.68 2 2 C1.34 2 0.68 2 0 2 C0 1.34 0 0.68 0 0 Z " fill="#73A0C6" transform="translate(52,77)"/>
<path d="M0 0 C3.08089673 2.77280706 4.68775452 5.06326356 6 9 C5.01 9.495 5.01 9.495 4 10 C2 8.375 2 8.375 0 6 C-0.25 2.75 -0.25 2.75 0 0 Z " fill="#6C96C5" transform="translate(91,38)"/>
<path d="M0 0 C3.94139078 1.66751148 6.7892812 4.22710649 10 7 C9.67 7.66 9.34 8.32 9 9 C8.01 8.67 7.02 8.34 6 8 C6 7.34 6 6.68 6 6 C5.34 6 4.68 6 4 6 C3.67 5.34 3.34 4.68 3 4 C2.01 3.67 1.02 3.34 0 3 C0 2.01 0 1.02 0 0 Z " fill="#6A95C0" transform="translate(40,31)"/>
<path d="M0 0 C0.33 0 0.66 0 1 0 C1.21192221 5.19209404 0.5912689 9.126739 -1 14 C-1.33 14 -1.66 14 -2 14 C-2.1799928 8.78020872 -1.97094808 4.92737019 0 0 Z " fill="#6F9EC4" transform="translate(82,217)"/>
<path d="M0 0 C0.66 0 1.32 0 2 0 C1.5020163 3.73487777 1.12508244 5.81237635 -1 9 C-1.33 8.67 -1.66 8.34 -2 8 C-1.28 1.28 -1.28 1.28 0 0 Z " fill="#5387BE" transform="translate(72,190)"/>
<path d="M0 0 C-1.45255699 3.82946843 -3.42895561 5.12050295 -7 7 C-7.33 6.34 -7.66 5.68 -8 5 C-7.34 5 -6.68 5 -6 5 C-6 4.01 -6 3.02 -6 2 C-3 0 -3 0 0 0 Z " fill="#689AC5" transform="translate(190,176)"/>
<path d="M0 0 C1.98 0 3.96 0 6 0 C5.21625 0.598125 4.4325 1.19625 3.625 1.8125 C0.85425677 3.91085249 0.85425677 3.91085249 -1 7 C-1.66 6.67 -2.32 6.34 -3 6 C-2.67 4.68 -2.34 3.36 -2 2 C-1.34 2 -0.68 2 0 2 C0 1.34 0 0.68 0 0 Z " fill="#749DCB" transform="translate(169,81)"/>
<path d="M0 0 C-3.68734758 2.45823172 -6.69699971 3.01242616 -11 4 C-10.67 3.01 -10.34 2.02 -10 1 C-6.78548731 -0.60725635 -3.56387464 -0.05748185 0 0 Z " fill="#7BA0C8" transform="translate(99,78)"/>
<path d="M0 0 C0.33 0.66 0.66 1.32 1 2 C1.66 2 2.32 2 3 2 C3 2.66 3 3.32 3 4 C3.9590625 4.433125 3.9590625 4.433125 4.9375 4.875 C7 6 7 6 8 8 C5.2980567 7.63487253 3.41609148 7.30130763 1.1875 5.6875 C0 4 0 4 0 0 Z " fill="#79A7CD" transform="translate(59,48)"/>
<path d="M0 0 C0.99 0 1.98 0 3 0 C3 1.98 3 3.96 3 6 C1.02 6.99 1.02 6.99 -1 8 C-0.67 5.36 -0.34 2.72 0 0 Z " fill="#5388BB" transform="translate(57,240)"/>
<path d="M0 0 C0.66 0.33 1.32 0.66 2 1 C0.35 3.64 -1.3 6.28 -3 9 C-3.66 7.68 -4.32 6.36 -5 5 C-3.35 3.35 -1.7 1.7 0 0 Z " fill="#749BC4" transform="translate(27,229)"/>
<path d="M0 0 C-1.1858237 3.37503669 -2.27573689 5.64722731 -5 8 C-5 5.69 -5 3.38 -5 1 C-3 0 -3 0 0 0 Z " fill="#6A9AC6" transform="translate(54,193)"/>
<path d="M0 0 C1.88391785 3.26545761 2.49287967 6.28111761 3 10 C1 8.1875 1 8.1875 -1 6 C-1 5.01 -1 4.02 -1 3 C-1.66 2.67 -2.32 2.34 -3 2 C-2.01 1.34 -1.02 0.68 0 0 Z " fill="#709BC6" transform="translate(70,34)"/>
<path d="M0 0 C0.99 0 1.98 0 3 0 C3.33 2.64 3.66 5.28 4 8 C3.34 7.67 2.68 7.34 2 7 C2 6.34 2 5.68 2 5 C1.01 5.33 0.02 5.66 -1 6 C-0.67 4.02 -0.34 2.04 0 0 Z " fill="#4581BF" transform="translate(60,233)"/>
<path d="M0 0 C2 1 2 1 2.875 2.8125 C3 5 3 5 1.0625 7.25 C0.381875 7.8275 -0.29875 8.405 -1 9 C-1.09765625 2.84765625 -1.09765625 2.84765625 -1 1 C-0.67 0.67 -0.34 0.34 0 0 Z " fill="#6399CB" transform="translate(76,155)"/>
<path d="M0 0 C1.99954746 -0.04254356 4.00041636 -0.04080783 6 0 C7 1 7 1 7.0625 3.5625 C7.041875 4.366875 7.02125 5.17125 7 6 C5.68 5.67 4.36 5.34 3 5 C3.66 4.01 4.32 3.02 5 2 C3.35 1.67 1.7 1.34 0 1 C0 0.67 0 0.34 0 0 Z " fill="#709DC9" transform="translate(185,145)"/>
<path d="M0 0 C3.3 0.99 6.6 1.98 10 3 C7 5 7 5 4.3125 4.625 C3.549375 4.41875 2.78625 4.2125 2 4 C2 3.34 2 2.68 2 2 C1.34 2 0.68 2 0 2 C0 1.34 0 0.68 0 0 Z " fill="#6395C5" transform="translate(170,119)"/>
<path d="M0 0 C3.3125 0.1875 3.3125 0.1875 7 1 C8.9375 3.5625 8.9375 3.5625 10 6 C6.00499382 4.6302836 3.19990508 2.74277578 0 0 Z " fill="#779DC6" transform="translate(37,90)"/>
<path d="M0 0 C2.475 0.99 2.475 0.99 5 2 C5 2.99 5 3.98 5 5 C4.01 5.33 3.02 5.66 2 6 C0 2.25 0 2.25 0 0 Z " fill="#6496C8" transform="translate(181,21)"/>
<path d="M0 0 C1.32 0.66 2.64 1.32 4 2 C1.03 3.65 -1.94 5.3 -5 7 C-5 6.01 -5 5.02 -5 4 C-3.35 3.34 -1.7 2.68 0 2 C0 1.34 0 0.68 0 0 Z " fill="#769AC5" transform="translate(175,185)"/>
<path d="M0 0 C1.98 0 3.96 0 6 0 C4.625 1.5 4.625 1.5 3 3 C2.34 3 1.68 3 1 3 C1 3.66 1 4.32 1 5 C0.01 5.33 -0.98 5.66 -2 6 C-2.66 5.34 -3.32 4.68 -4 4 C-2.68 4 -1.36 4 0 4 C0 2.68 0 1.36 0 0 Z " fill="#6E9AC6" transform="translate(23,158)"/>
<path d="M0 0 C0.99 0.495 0.99 0.495 2 1 C2.4140625 3.06640625 2.4140625 3.06640625 2.625 5.5625 C2.69976562 6.38878906 2.77453125 7.21507812 2.8515625 8.06640625 C2.92503906 9.02353516 2.92503906 9.02353516 3 10 C2.34 10 1.68 10 1 10 C0.37542727 6.56484998 0 3.50935186 0 0 Z " fill="#6390C1" transform="translate(212,56)"/>
<path d="M0 0 C0.33 0.99 0.66 1.98 1 3 C1.99 3.33 2.98 3.66 4 4 C1.69 4.66 -0.62 5.32 -3 6 C-3.66 5.34 -4.32 4.68 -5 4 C-4.360625 3.71125 -3.72125 3.4225 -3.0625 3.125 C-0.84793921 2.17176549 -0.84793921 2.17176549 0 0 Z " fill="#74A5CF" transform="translate(186,51)"/>
<path d="M0 0 C0.99 0 1.98 0 3 0 C2.67 1.98 2.34 3.96 2 6 C1.01 6.33 0.02 6.66 -1 7 C-0.67 4.69 -0.34 2.38 0 0 Z " fill="#5D8DBD" transform="translate(151,40)"/>
<path d="M0 0 C1.10844919 3.32534757 0.84454356 5.62182575 0 9 C-0.99 9 -1.98 9 -3 9 C-2.44271087 5.65626525 -1.64826111 2.96687001 0 0 Z " fill="#749DC5" transform="translate(136,35)"/>
<path d="M0 0 C1.9375 0.6875 1.9375 0.6875 4 2 C4.75 4.625 4.75 4.625 5 7 C4.34 7 3.68 7 3 7 C3 6.34 3 5.68 3 5 C2.34 5 1.68 5 1 5 C1 4.34 1 3.68 1 3 C0.34 2.67 -0.32 2.34 -1 2 C-0.67 1.34 -0.34 0.68 0 0 Z " fill="#6C9CC9" transform="translate(26,40)"/>
<path d="M0 0 C0.99 0 1.98 0 3 0 C3.59732819 2.76264289 4 5.16032769 4 8 C2 6.25 2 6.25 0 4 C0 2.68 0 1.36 0 0 Z " fill="#6693C0" transform="translate(79,19)"/>
<path d="M0 0 C0.99 0.33 1.98 0.66 3 1 C2.67 2.32 2.34 3.64 2 5 C1.01 5 0.02 5 -1 5 C-1.33 5.66 -1.66 6.32 -2 7 C-1.125 2.25 -1.125 2.25 0 0 Z " fill="#5085BC" transform="translate(68,167)"/>
<path d="M0 0 C0.66 0 1.32 0 2 0 C0.6302836 3.99500618 -1.25722422 6.80009492 -4 10 C-4.33 9.01 -4.66 8.02 -5 7 C-4.01 6.67 -3.02 6.34 -2 6 C-2 5.01 -2 4.02 -2 3 C-1.34 3 -0.68 3 0 3 C0 2.01 0 1.02 0 0 Z " fill="#88A5CD" transform="translate(209,151)"/>
<path d="M0 0 C1.485 0.99 1.485 0.99 3 2 C2.01 4.31 1.02 6.62 0 9 C-0.33 9 -0.66 9 -1 9 C-1.09765625 2.84765625 -1.09765625 2.84765625 -1 1 C-0.67 0.67 -0.34 0.34 0 0 Z " fill="#72A1CB" transform="translate(157,28)"/>
<path d="M0 0 C0.66 0 1.32 0 2 0 C2.125 3.375 2.125 3.375 2 7 C1.34 7.66 0.68 8.32 0 9 C-1.10844919 5.67465243 -0.84454356 3.37817425 0 0 Z " fill="#5990CC" transform="translate(74,121)"/>
<path d="M0 0 C0.99 0.33 1.98 0.66 3 1 C-0.465 3.97 -0.465 3.97 -4 7 C-3.04065919 3.16263678 -2.76390737 2.40339772 0 0 Z " fill="#7AA0CA" transform="translate(138,98)"/>
<path d="M0 0 C2.4294516 3.6441774 2.16179575 5.71241272 2 10 C1.34 9.67 0.68 9.34 0 9 C-1.28571429 2.57142857 -1.28571429 2.57142857 0 0 Z " fill="#7397C0" transform="translate(221,81)"/>
<path d="M0 0 C0.763125 0.20625 1.52625 0.4125 2.3125 0.625 C1.9825 1.285 1.6525 1.945 1.3125 2.625 C-0.0075 2.625 -1.3275 2.625 -2.6875 2.625 C-3.0175 3.285 -3.3475 3.945 -3.6875 4.625 C-4.3475 4.625 -5.0075 4.625 -5.6875 4.625 C-5.6875 3.635 -5.6875 2.645 -5.6875 1.625 C-2.6875 -0.375 -2.6875 -0.375 0 0 Z " fill="#5188C4" transform="translate(22.6875,79.375)"/>
<path d="M0 0 C2.31 1.98 4.62 3.96 7 6 C5.68 6.33 4.36 6.66 3 7 C2.67 5.68 2.34 4.36 2 3 C1.34 3 0.68 3 0 3 C0 2.01 0 1.02 0 0 Z " fill="#759CC6" transform="translate(69,58)"/>
<path d="M0 0 C-1.98 0.99 -1.98 0.99 -4 2 C-3.67 2.66 -3.34 3.32 -3 4 C-5.31 3.67 -7.62 3.34 -10 3 C-6.88378718 -0.11621282 -4.21175599 -0.11383124 0 0 Z " fill="#8FB1D7" transform="translate(119,52)"/>
<path d="M0 0 C2.97 1.98 2.97 1.98 6 4 C5.67 4.66 5.34 5.32 5 6 C3.35 5.67 1.7 5.34 0 5 C0 3.35 0 1.7 0 0 Z " fill="#6E97C8" transform="translate(187,25)"/>
<path d="M0 0 C0.66 0.66 1.32 1.32 2 2 C1.60495559 4.9628331 0.40182371 7.38326241 -1 10 C-2.27351308 7.45297384 -1.80191925 6.5717055 -1.0625 3.875 C-0.86785156 3.15054688 -0.67320313 2.42609375 -0.47265625 1.6796875 C-0.31667969 1.12539062 -0.16070312 0.57109375 0 0 Z " fill="#608EB8" transform="translate(66,208)"/>
<path d="M0 0 C1.04449911 3.13349732 0.93423645 3.98968256 0 7 C-1.32 6.34 -2.64 5.68 -4 5 C-2.68 3.35 -1.36 1.7 0 0 Z " fill="#6298CB" transform="translate(33,190)"/>
<path d="M0 0 C0.66 0.33 1.32 0.66 2 1 C1.01 2.485 1.01 2.485 0 4 C-2.31 3.67 -4.62 3.34 -7 3 C-4.66785852 1.79371992 -2.50357861 0.8345262 0 0 Z " fill="#7AA3D1" transform="translate(150,179)"/>
<path d="M0 0 C0.66 0.33 1.32 0.66 2 1 C2 1.66 2 2.32 2 3 C-1 5 -1 5 -3.1875 4.625 C-3.785625 4.41875 -4.38375 4.2125 -5 4 C-3.35 2.68 -1.7 1.36 0 0 Z " fill="#729CC6" transform="translate(130,135)"/>
<path d="M0 0 C0.66 0.33 1.32 0.66 2 1 C1.375 2.9375 1.375 2.9375 0 5 C-3.125 5.75 -3.125 5.75 -6 6 C-4 4 -2 2 0 0 Z " fill="#82A7CD" transform="translate(42,124)"/>
<path d="M0 0 C0.99 0 1.98 0 3 0 C3.33 0.99 3.66 1.98 4 3 C3.34 3 2.68 3 2 3 C1.67 3.99 1.34 4.98 1 6 C-0.0625 4.125 -0.0625 4.125 -1 2 C-0.67 1.34 -0.34 0.68 0 0 Z " fill="#4081C2" transform="translate(66,103)"/>
</svg>
